[center][center][img]http://rapidhdd.com/images/7672670479997.jpg[/img]

[img]http://leetleech.org/images/48874973695367351744.png[/img]

Format                           : AVI
Format/Info                      : Audio Video Interleave
File size                        : 1.00 GiB
Duration                         : 1h 27mn
Overall bit rate                 : 1 648 Kbps
Director                         : TEAM-SERENiTY
Writing application              : VirtualDubMod 1.5.10.2 (build 2542/release)
Writing library                  : VirtualDub build 32839/release
Copyright                        : TEAM-SERENiTY

Video
ID                               : 0
Format                           : MPEG-4 Visual
Format profile                   : Advanced Simple@L5
Format settings, BVOP            : Yes
Format settings, QPel            : No
Format settings, GMC             : No warppoints
Format settings, Matrix          : Custom
Codec ID                         : XVID
Codec ID/Hint                    : XviD
Duration                         : 1h 27mn
Bit rate                         : 1 447 Kbps
Width                            : 692 pixels
Height                           : 308 pixels
Display aspect ratio             : 2.25:1
Frame rate                       : 25.000 fps
Color space                      : YUV
Chroma subsampling               : 4:2:0
Bit depth                        : 8 bits
Scan type                        : Progressive
Bits/(Pixel*Frame)               : 0.272
Stream size                      : 900 MiB (88%)
Writing library                  : XviD 1.2.1 (UTC 2008-12-04)

Audio
ID                               : 1
Format                           : AC-3
Format/Info                      : Audio Coding 3
Mode extension                   : CM (complete main)
Codec ID                         : 2000
Duration                         : 1h 27mn
Bit rate mode                    : Constant
Bit rate                         : 192 Kbps
Channel(s)                       : 2 channels
Channel positions                : Front: L R
Sampling rate                    : 48.0 KHz
Bit depth                        : 16 bits
Stream size                      : 119 MiB (12%)
Alignment                        : Split accross interleaves
Interleave, duration             : 40 ms (1.00 video frame)
Interleave, preload duration     : 500 ms

[url]http://www.imdb.com/title/tt0479997/[/url]

Users: 5.6/10 (3,534 votes) 55 reviews | Critics: 111 reviews Metascore: 28/100 (based on 27 reviews from Metacritic.com)

14th-century knights transport a suspected witch to a monastery, where monks deduce her powers could be the source of the Black Plague.
Director:
Dominic Sena
Writer:
Bragi F. Schut
Stars:
Nicolas Cage, Ron Perlman and Claire Foy


[img]http://leetleech.org/images/95521316153253938506.png[/img]

[img]http://img338.imageshack.us/img338/8039/vlcsnap2011012715h06m42.png[/img]
[img]http://img198.imageshack.us/img198/750/vlcsnap2011012715h03m37.png[/img]
[img]http://img812.imageshack.us/img812/9968/vlcsnap2011012715h04m18.png[/img]

Video source - Serenity   Thanks
Audio source - TOXiC-iNK Thanks 

Just ran a few filters through this sharpened ,lowered the red ,reduced the contrast and a few other things .Just my take it on it with a V2 ..Enjoy 

Greetz to Imagine ,Flawl3ss ,Santi ,Vision ,Kingdom,BDK,DiGiTALiNK,LEGION,Classified,THC,WBZ,Rx ,Feel Free and to all who share


[img]http://img411.imageshack.us/img411/6898/sig1n.jpg[/img][/center]